<svg xmlns="http://www.w3.org/2000/svg" version="1.1" viewBox="0 0 198 198">
  <defs><style>.cls-1 {fill: #fff;}.cls-2 {fill: #1f1f1f;}</style></defs>
  <circle class="cls-2" cx="99" cy="99" r="99"/>
  <path class="cls-1" d="M52.1,52.3h20.3c2.9,0,5.3-2.4,5.3-5.3h0c0-2.9-2.4-5.3-5.3-5.3h-22.2c-4.9,0-8.8,3.9-8.8,8.8v22.2c0,2.9,2.4,5.3,5.3,5.3h0c2.9,0,5.3-2.4,5.3-5.3,0,0,0-20.3,0-20.3Z"/>
  <path class="cls-1" d="M145.9,146.2h-20.3c-2.9,0-5.3,2.4-5.3,5.3h0c0,2.9,2.4,5.3,5.3,5.3h22.2c4.9,0,8.8-3.9,8.8-8.8v-22.2c0-2.9-2.4-5.3-5.3-5.3h0c-2.9,0-5.3,2.4-5.3,5.3v20.3Z"/>
  <path class="cls-1" d="M145.9,52.3v20.3c0,2.9,2.4,5.3,5.3,5.3h0c2.9,0,5.3-2.4,5.3-5.3v-22.2c0-4.9-3.9-8.8-8.8-8.8h-22.2c-2.9,0-5.3,2.4-5.3,5.3h0c0,2.9,2.4,5.3,5.3,5.3,0,0,20.3,0,20.3,0Z"/>
  <path class="cls-1" d="M52.1,146.2v-20.3c0-2.9-2.4-5.3-5.3-5.3h0c-2.9,0-5.3,2.4-5.3,5.3v22.2c0,4.9,3.9,8.8,8.8,8.8h22.2c2.9,0,5.3-2.4,5.3-5.3h0c0-2.9-2.4-5.3-5.3-5.3,0,0-20.3,0-20.3,0Z"/>
  <path class="cls-1" d="M129.1,69.2h0c-8.3-8.3-21.8-8.3-30.1,0l-5.7,5.7c-2.1,2.1-2.1,5.4,0,7.5h0c2.1,2.1,5.4,2.1,7.5,0l5.7-5.7c4.2-4.2,10.9-4.2,15,0h0c4.2,4.2,4.2,10.9,0,15l-5.7,5.7c-2.1,2.1-2.1,5.4,0,7.5h0c2.1,2.1,5.4,2.1,7.5,0l5.7-5.7c8.3-8.3,8.3-21.8,0-30.1Z"/>
  <path class="cls-1" d="M68.9,129.3h0c8.3,8.3,21.8,8.3,30.1,0l5.7-5.7c2.1-2.1,2.1-5.4,0-7.5h0c-2.1-2.1-5.4-2.1-7.5,0l-5.7,5.7c-4.2,4.2-10.9,4.2-15,0h0c-4.2-4.2-4.2-10.9,0-15l5.7-5.7c2.1-2.1,2.1-5.4,0-7.5h0c-2.1-2.1-5.4-2.1-7.5,0l-5.7,5.7c-8.3,8.3-8.3,21.8,0,30.1Z"/>
</svg>